<svg width="26" height="27" viewBox="0 0 26 27" fill="none" xmlns="http://www.w3.org/2000/svg">
<g filter="url(#filter0_d_2602_129)">
<path d="M21.329 18.3327L21.3332 18.332V12.2195C21.3332 9.22921 20.6894 6.92574 17.1936 6.92574C15.513 6.92574 14.3853 7.84796 13.9248 8.72227H13.8762V7.2049H10.5616V18.332H14.013V12.8223C14.013 11.3716 14.288 9.9688 16.0846 9.9688C17.8547 9.9688 17.8811 11.6244 17.8811 12.9153V18.3327H21.329Z" fill="white"/>
<path d="M4.9415 7.2056H8.39706V18.3327H4.9415V7.2056Z" fill="white"/>
<path d="M6.66789 1.66602C5.56303 1.66602 4.6665 2.56254 4.6665 3.6674C4.6665 4.77227 5.56303 5.68754 6.66789 5.68754C7.77275 5.68754 8.66928 4.77227 8.66928 3.6674C8.66859 2.56254 7.77206 1.66602 6.66789 1.66602Z" fill="white"/>
</g>
<defs>
<filter id="filter0_d_2602_129" x="-1" y="0" width="28" height="28" filterUnits="userSpaceOnUse" color-interpolation-filters="sRGB">
<feFlood flood-opacity="0" result="BackgroundImageFix"/>
<feColorMatrix in="SourceAlpha" type="matrix" values="0 0 0 0 0 0 0 0 0 0 0 0 0 0 0 0 0 0 127 0" result="hardAlpha"/>
<feOffset dy="4"/>
<feGaussianBlur stdDeviation="2"/>
<feComposite in2="hardAlpha" operator="out"/>
<feColorMatrix type="matrix" values="0 0 0 0 0 0 0 0 0 0 0 0 0 0 0 0 0 0 0.25 0"/>
<feBlend mode="normal" in2="BackgroundImageFix" result="effect1_dropShadow_2602_129"/>
<feBlend mode="normal" in="SourceGraphic" in2="effect1_dropShadow_2602_129" result="shape"/>
</filter>
</defs>
</svg>
