<svg width="1875" height="1068" viewBox="0 0 1875 1068" fill="none" xmlns="http://www.w3.org/2000/svg">
<g opacity="0.2" clip-path="url(#clip0_2529_463)">
<path d="M30.0975 890.001C-48.4557 890.001 -112 953.545 -112 1032.1C-112 1110.46 -48.4557 1174.2 30.0975 1174.2C108.456 1174.2 172.195 1110.65 172.195 1032.1C172 953.545 108.456 890.001 30.0975 890.001ZM30.0975 1165.03C-43.3878 1165.03 -102.839 1105.58 -102.839 1032.1C-102.839 958.613 -43.3878 899.162 30.0975 899.162C103.583 899.162 163.034 958.613 163.034 1032.1C163.034 1105.39 103.388 1165.03 30.0975 1165.03Z" fill="white"/>
<path d="M30.0988 920.604C-31.3014 920.604 -81.2012 970.503 -81.2012 1031.9C-81.2012 1093.3 -31.3014 1143.2 30.0988 1143.2C91.4989 1143.2 141.399 1093.5 141.399 1032.1C141.399 970.503 91.4989 920.604 30.0988 920.604ZM30.0988 1126.25C-21.9452 1126.25 -64.243 1083.95 -64.243 1031.9C-64.243 979.86 -21.9452 937.562 30.0988 937.562C82.1427 937.562 124.441 979.86 124.441 1031.9C124.441 1083.95 82.1427 1126.25 30.0988 1126.25Z" fill="white"/>
<path d="M30.098 969.528C-4.40304 969.528 -32.4717 997.597 -32.4717 1032.1C-32.4717 1066.6 -4.59796 1094.67 30.098 1094.67C64.599 1094.67 92.6677 1066.6 92.6677 1032.1C92.4727 997.597 64.599 969.528 30.098 969.528ZM30.098 1065.62C11.5805 1065.62 -3.42843 1050.62 -3.42843 1032.1C-3.42843 1013.58 11.5805 998.572 30.098 998.572C48.6155 998.572 63.6244 1013.58 63.6244 1032.1C63.6244 1050.62 48.6155 1065.62 30.098 1065.62Z" fill="white"/>
</g>
<g opacity="0.8" clip-path="url(#clip1_2529_463)">
<path d="M1753.34 783.265C1753.34 784.785 1752.19 785.924 1750.67 785.924C1749.14 785.924 1748 784.785 1748 783.265C1748 781.746 1749.14 780.606 1750.67 780.606C1752.19 780.606 1753.34 781.873 1753.34 783.265Z" fill="white"/>
<path d="M1776.08 783.265C1776.08 784.785 1774.93 785.924 1773.41 785.924C1771.88 785.924 1770.74 784.785 1770.74 783.265C1770.74 781.746 1771.88 780.606 1773.41 780.606C1774.8 780.606 1776.08 781.873 1776.08 783.265Z" fill="white"/>
<path d="M1798.69 783.265C1798.69 784.785 1797.54 785.924 1796.02 785.924C1794.5 785.924 1793.35 784.785 1793.35 783.265C1793.35 781.746 1794.5 780.606 1796.02 780.606C1797.54 780.606 1798.69 781.873 1798.69 783.265Z" fill="white"/>
<path d="M1821.43 783.265C1821.43 784.785 1820.28 785.924 1818.76 785.924C1817.24 785.924 1816.09 784.785 1816.09 783.265C1816.09 781.746 1817.24 780.606 1818.76 780.606C1820.28 780.606 1821.43 781.873 1821.43 783.265Z" fill="white"/>
<path d="M1844.17 783.265C1844.17 784.785 1843.02 785.924 1841.5 785.924C1839.98 785.924 1838.83 784.785 1838.83 783.265C1838.83 781.746 1839.98 780.606 1841.5 780.606C1842.9 780.606 1844.17 781.873 1844.17 783.265Z" fill="white"/>
<path d="M1866.91 783.265C1866.91 784.785 1865.76 785.924 1864.24 785.924C1862.72 785.924 1861.57 784.785 1861.57 783.265C1861.57 781.746 1862.72 780.606 1864.24 780.606C1865.76 780.606 1866.91 781.873 1866.91 783.265Z" fill="white"/>
<path d="M1753.34 802.132C1753.34 803.651 1752.19 804.791 1750.67 804.791C1749.14 804.791 1748 803.651 1748 802.132C1748 800.612 1749.14 799.473 1750.67 799.473C1752.19 799.473 1753.34 800.612 1753.34 802.132Z" fill="white"/>
<path d="M1776.08 802.132C1776.08 803.651 1774.93 804.791 1773.41 804.791C1771.88 804.791 1770.74 803.651 1770.74 802.132C1770.74 800.612 1771.88 799.473 1773.41 799.473C1774.8 799.473 1776.08 800.612 1776.08 802.132Z" fill="white"/>
<path d="M1798.69 802.132C1798.69 803.651 1797.54 804.791 1796.02 804.791C1794.5 804.791 1793.35 803.651 1793.35 802.132C1793.35 800.612 1794.5 799.473 1796.02 799.473C1797.54 799.473 1798.69 800.612 1798.69 802.132Z" fill="white"/>
<path d="M1821.43 802.132C1821.43 803.651 1820.28 804.791 1818.76 804.791C1817.24 804.791 1816.09 803.651 1816.09 802.132C1816.09 800.612 1817.24 799.473 1818.76 799.473C1820.28 799.473 1821.43 800.612 1821.43 802.132Z" fill="white"/>
<path d="M1844.17 802.132C1844.17 803.651 1843.02 804.791 1841.5 804.791C1839.98 804.791 1838.83 803.651 1838.83 802.132C1838.83 800.612 1839.98 799.473 1841.5 799.473C1842.9 799.473 1844.17 800.612 1844.17 802.132Z" fill="white"/>
<path d="M1866.91 802.132C1866.91 803.651 1865.76 804.791 1864.24 804.791C1862.72 804.791 1861.57 803.651 1861.57 802.132C1861.57 800.612 1862.72 799.473 1864.24 799.473C1865.76 799.473 1866.91 800.612 1866.91 802.132Z" fill="white"/>
<path d="M1753.34 745.66C1753.34 747.179 1752.19 748.319 1750.67 748.319C1749.14 748.319 1748 747.179 1748 745.66C1748 744.141 1749.14 743.001 1750.67 743.001C1752.19 743.001 1753.34 744.141 1753.34 745.66Z" fill="white"/>
<path d="M1776.08 745.66C1776.08 747.179 1774.93 748.319 1773.41 748.319C1771.88 748.319 1770.74 747.179 1770.74 745.66C1770.74 744.141 1771.88 743.001 1773.41 743.001C1774.8 743.001 1776.08 744.141 1776.08 745.66Z" fill="white"/>
<path d="M1798.69 745.66C1798.69 747.179 1797.54 748.319 1796.02 748.319C1794.5 748.319 1793.35 747.179 1793.35 745.66C1793.35 744.141 1794.62 743.001 1796.02 743.001C1797.54 743.001 1798.69 744.141 1798.69 745.66Z" fill="white"/>
<path d="M1821.43 745.66C1821.43 747.179 1820.28 748.319 1818.76 748.319C1817.24 748.319 1816.09 747.179 1816.09 745.66C1816.09 744.141 1817.36 743.001 1818.76 743.001C1820.16 743.001 1821.43 744.141 1821.43 745.66Z" fill="white"/>
<path d="M1844.17 745.66C1844.17 747.179 1843.02 748.319 1841.5 748.319C1839.98 748.319 1838.83 747.179 1838.83 745.66C1838.83 744.141 1839.98 743.001 1841.5 743.001C1842.9 743.001 1844.17 744.141 1844.17 745.66Z" fill="white"/>
<path d="M1866.91 745.66C1866.91 747.179 1865.76 748.319 1864.24 748.319C1862.72 748.319 1861.57 747.179 1861.57 745.66C1861.57 744.141 1862.72 743.001 1864.24 743.001C1865.76 743.001 1866.91 744.141 1866.91 745.66Z" fill="white"/>
<path d="M1753.34 764.526C1753.34 766.046 1752.19 767.185 1750.67 767.185C1749.14 767.185 1748 765.919 1748 764.526C1748 763.007 1749.14 761.867 1750.67 761.867C1752.19 761.867 1753.34 763.007 1753.34 764.526Z" fill="white"/>
<path d="M1776.08 764.526C1776.08 766.046 1774.93 767.185 1773.41 767.185C1771.88 767.185 1770.74 766.046 1770.74 764.526C1770.74 763.007 1771.88 761.867 1773.41 761.867C1774.8 761.867 1776.08 763.007 1776.08 764.526Z" fill="white"/>
<path d="M1798.69 764.526C1798.69 766.046 1797.54 767.185 1796.02 767.185C1794.5 767.185 1793.35 766.046 1793.35 764.526C1793.35 763.007 1794.5 761.867 1796.02 761.867C1797.54 761.867 1798.69 763.007 1798.69 764.526Z" fill="white"/>
<path d="M1821.43 764.526C1821.43 766.046 1820.28 767.185 1818.76 767.185C1817.24 767.185 1816.09 766.046 1816.09 764.526C1816.09 763.007 1817.24 761.867 1818.76 761.867C1820.28 761.867 1821.43 763.007 1821.43 764.526Z" fill="white"/>
<path d="M1844.17 764.526C1844.17 766.046 1843.02 767.185 1841.5 767.185C1839.98 767.185 1838.83 766.046 1838.83 764.526C1838.83 763.007 1839.98 761.867 1841.5 761.867C1842.9 761.867 1844.17 763.007 1844.17 764.526Z" fill="white"/>
<path d="M1866.91 764.526C1866.91 766.046 1865.76 767.185 1864.24 767.185C1862.72 767.185 1861.57 766.046 1861.57 764.526C1861.57 763.007 1862.72 761.867 1864.24 761.867C1865.76 761.867 1866.91 763.007 1866.91 764.526Z" fill="white"/>
<path d="M1753.34 820.871C1753.34 822.39 1752.19 823.53 1750.67 823.53C1749.14 823.53 1748 822.39 1748 820.871C1748 819.351 1749.14 818.212 1750.67 818.212C1752.19 818.212 1753.34 819.478 1753.34 820.871Z" fill="white"/>
<path d="M1776.08 820.871C1776.08 822.39 1774.93 823.53 1773.41 823.53C1771.88 823.53 1770.74 822.39 1770.74 820.871C1770.74 819.351 1771.88 818.212 1773.41 818.212C1774.8 818.212 1776.08 819.478 1776.08 820.871Z" fill="white"/>
<path d="M1798.69 820.871C1798.69 822.39 1797.54 823.53 1796.02 823.53C1794.5 823.53 1793.35 822.39 1793.35 820.871C1793.35 819.351 1794.5 818.212 1796.02 818.212C1797.54 818.212 1798.69 819.478 1798.69 820.871Z" fill="white"/>
<path d="M1821.43 820.871C1821.43 822.39 1820.28 823.53 1818.76 823.53C1817.24 823.53 1816.09 822.39 1816.09 820.871C1816.09 819.351 1817.24 818.212 1818.76 818.212C1820.28 818.212 1821.43 819.478 1821.43 820.871Z" fill="white"/>
<path d="M1844.17 820.871C1844.17 822.39 1843.02 823.53 1841.5 823.53C1839.98 823.53 1838.83 822.39 1838.83 820.871C1838.83 819.351 1839.98 818.212 1841.5 818.212C1842.9 818.212 1844.17 819.478 1844.17 820.871Z" fill="white"/>
<path d="M1866.91 820.871C1866.91 822.39 1865.76 823.53 1864.24 823.53C1862.72 823.53 1861.57 822.39 1861.57 820.871C1861.57 819.351 1862.72 818.212 1864.24 818.212C1865.76 818.212 1866.91 819.478 1866.91 820.871Z" fill="white"/>
<path d="M1753.34 839.737C1753.34 841.256 1752.19 842.396 1750.67 842.396C1749.14 842.396 1748 841.256 1748 839.737C1748 838.218 1749.14 837.078 1750.67 837.078C1752.19 837.078 1753.34 838.218 1753.34 839.737Z" fill="white"/>
<path d="M1776.08 839.737C1776.08 841.256 1774.93 842.396 1773.41 842.396C1771.88 842.396 1770.74 841.256 1770.74 839.737C1770.74 838.218 1771.88 837.078 1773.41 837.078C1774.8 837.078 1776.08 838.218 1776.08 839.737Z" fill="white"/>
<path d="M1798.69 839.737C1798.69 841.256 1797.54 842.396 1796.02 842.396C1794.5 842.396 1793.35 841.256 1793.35 839.737C1793.35 838.218 1794.5 837.078 1796.02 837.078C1797.54 837.078 1798.69 838.218 1798.69 839.737Z" fill="white"/>
<path d="M1818.76 842.396C1820.23 842.396 1821.43 841.206 1821.43 839.737C1821.43 838.269 1820.23 837.078 1818.76 837.078C1817.29 837.078 1816.09 838.269 1816.09 839.737C1816.09 841.206 1817.29 842.396 1818.76 842.396Z" fill="white"/>
<path d="M1844.17 839.737C1844.17 841.256 1843.02 842.396 1841.5 842.396C1839.98 842.396 1838.83 841.256 1838.83 839.737C1838.83 838.218 1839.98 837.078 1841.5 837.078C1842.9 837.078 1844.17 838.218 1844.17 839.737Z" fill="white"/>
<path d="M1866.91 839.737C1866.91 841.256 1865.76 842.396 1864.24 842.396C1862.72 842.396 1861.57 841.256 1861.57 839.737C1861.57 838.218 1862.72 837.078 1864.24 837.078C1865.76 837.078 1866.91 838.218 1866.91 839.737Z" fill="white"/>
<path d="M1753.34 858.602C1753.34 860.122 1752.19 861.261 1750.67 861.261C1749.14 861.261 1748 860.122 1748 858.602C1748 857.083 1749.14 855.943 1750.67 855.943C1752.19 855.943 1753.34 857.083 1753.34 858.602Z" fill="white"/>
<path d="M1776.08 858.602C1776.08 860.122 1774.93 861.261 1773.41 861.261C1771.88 861.261 1770.74 860.122 1770.74 858.602C1770.74 857.083 1771.88 855.943 1773.41 855.943C1774.8 855.943 1776.08 857.083 1776.08 858.602Z" fill="white"/>
<path d="M1798.69 858.602C1798.69 860.122 1797.54 861.261 1796.02 861.261C1794.5 861.261 1793.35 860.122 1793.35 858.602C1793.35 857.083 1794.5 855.943 1796.02 855.943C1797.54 855.943 1798.69 857.083 1798.69 858.602Z" fill="white"/>
<path d="M1821.43 858.602C1821.43 860.122 1820.28 861.261 1818.76 861.261C1817.24 861.261 1816.09 860.122 1816.09 858.602C1816.09 857.083 1817.24 855.943 1818.76 855.943C1820.28 855.943 1821.43 857.083 1821.43 858.602Z" fill="white"/>
<path d="M1844.17 858.602C1844.17 860.122 1843.02 861.261 1841.5 861.261C1839.98 861.261 1838.83 860.122 1838.83 858.602C1838.83 857.083 1839.98 855.943 1841.5 855.943C1842.9 855.943 1844.17 857.083 1844.17 858.602Z" fill="white"/>
<path d="M1866.91 858.602C1866.91 860.122 1865.76 861.261 1864.24 861.261C1862.72 861.261 1861.57 860.122 1861.57 858.602C1861.57 857.083 1862.72 855.943 1864.24 855.943C1865.76 855.943 1866.91 857.083 1866.91 858.602Z" fill="white"/>
<path d="M1753.34 877.342C1753.34 878.861 1752.19 880.001 1750.67 880.001C1749.14 880.001 1748 878.861 1748 877.342C1748 875.822 1749.14 874.683 1750.67 874.683C1752.19 874.683 1753.34 875.949 1753.34 877.342Z" fill="white"/>
<path d="M1776.08 877.342C1776.08 878.861 1774.93 880.001 1773.41 880.001C1771.88 880.001 1770.74 878.861 1770.74 877.342C1770.74 875.822 1771.88 874.683 1773.41 874.683C1774.8 874.683 1776.08 875.949 1776.08 877.342Z" fill="white"/>
<path d="M1798.69 877.342C1798.69 878.861 1797.54 880.001 1796.02 880.001C1794.5 880.001 1793.35 878.861 1793.35 877.342C1793.35 875.822 1794.5 874.683 1796.02 874.683C1797.54 874.683 1798.69 875.949 1798.69 877.342Z" fill="white"/>
<path d="M1821.43 877.342C1821.43 878.861 1820.28 880.001 1818.76 880.001C1817.24 880.001 1816.09 878.861 1816.09 877.342C1816.09 875.822 1817.24 874.683 1818.76 874.683C1820.28 874.683 1821.43 875.949 1821.43 877.342Z" fill="white"/>
<path d="M1844.17 877.342C1844.17 878.861 1843.02 880.001 1841.5 880.001C1839.98 880.001 1838.83 878.861 1838.83 877.342C1838.83 875.822 1839.98 874.683 1841.5 874.683C1842.9 874.683 1844.17 875.949 1844.17 877.342Z" fill="white"/>
<path d="M1866.91 877.342C1866.91 878.861 1865.76 880.001 1864.24 880.001C1862.72 880.001 1861.57 878.861 1861.57 877.342C1861.57 875.822 1862.72 874.683 1864.24 874.683C1865.76 874.683 1866.91 875.949 1866.91 877.342Z" fill="white"/>
</g>
<g opacity="0.3">
<path d="M1746.81 69.222L1756.47 78.8809L1730.78 104.565L1705.1 78.8809L1714.68 69.2952L1730.71 85.3201L1746.81 69.222Z" fill="white"/>
<path d="M1746.81 34.5394L1756.39 44.1251L1730.71 69.8089L1705.1 44.1982L1714.76 34.5394L1730.78 50.5643L1746.81 34.5394Z" fill="white"/>
<path d="M1746.73 -0.217532L1756.39 9.44134L1730.78 35.052L1705.1 9.36816L1714.68 -0.217531L1730.71 15.8074L1746.73 -0.217532Z" fill="white"/>
<path d="M1746.81 -34.9753L1756.47 -25.3164L1730.78 0.367407L1705.1 -25.3164L1714.76 -34.9753L1730.78 -18.9503L1746.81 -34.9753Z" fill="white"/>
</g>
<path opacity="0.3" d="M794 802.554C780.071 816.483 757.377 816.483 743.447 802.554C729.518 788.624 729.518 765.93 743.447 752.001L794 802.554Z" fill="white"/>
<g opacity="0.3">
<path d="M848.486 523.891C859.205 523.891 867.937 515.166 867.937 504.454C867.937 493.743 859.205 485.018 848.486 485.018L848.486 523.891Z" fill="white"/>
<path d="M818.141 523.891C828.861 523.891 837.592 515.166 837.592 504.454C837.592 493.743 828.861 485.018 818.141 485.018L818.141 523.891Z" fill="white"/>
<path d="M787.796 523.891C798.515 523.891 807.247 515.166 807.247 504.454C807.247 493.743 798.515 485.018 787.796 485.018L787.796 523.891Z" fill="white"/>
</g>
<g opacity="0.3">
<path d="M146.301 138.922L146.301 127.001L178 127.001L178 158.7L166.169 158.7L166.169 138.922L146.301 138.922Z" fill="white"/>
<path d="M124.898 160.326L124.898 148.495L156.597 148.495L156.597 180.104L144.676 180.104L144.676 160.326L124.898 160.326Z" fill="white"/>
<path d="M103.495 181.82L103.495 169.899L135.103 169.899L135.103 201.598L123.272 201.598L123.272 181.82L103.495 181.82Z" fill="white"/>
<path d="M82.0005 203.223L82.0005 191.302L113.699 191.302L113.699 223.001L101.778 223.001L101.778 203.223L82.0005 203.223Z" fill="white"/>
</g>
<defs>
<clipPath id="clip0_2529_463">
<rect width="284" height="284" fill="white" transform="translate(-112 890.001)"/>
</clipPath>
<clipPath id="clip1_2529_463">
<rect width="187" height="137" fill="white" transform="translate(1748 743.001)"/>
</clipPath>
</defs>
</svg>
