<svg width="1793" height="2706" viewBox="0 0 1793 2706" fill="none" xmlns="http://www.w3.org/2000/svg">
<g opacity="0.2">
<path d="M50.4738 2671.5L60.0008 2671.5L60.0008 2646L34.5469 2646L34.5469 2655.59L50.4738 2655.59L50.4738 2671.5Z" fill="#FFCF2D"/>
<path d="M33.1613 2688.71L42.7611 2688.71L42.7611 2663.29L17.2344 2663.29L17.2344 2672.8L33.1613 2672.8L33.1613 2688.71Z" fill="#FFCF2D"/>
<path d="M15.9269 2706L25.5267 2706L25.5267 2680.5L0 2680.5L-3.65458e-07 2690.09L15.9269 2690.09L15.9269 2706Z" fill="#FFCF2D"/>
</g>
<g opacity="0.12" clip-path="url(#clip0_2554_456)">
<path d="M1772.08 1738C1705.15 1738 1651 1792.15 1651 1859.08C1651 1925.85 1705.15 1980.17 1772.08 1980.17C1838.85 1980.17 1893.17 1926.02 1893.17 1859.08C1893 1792.15 1838.85 1738 1772.08 1738ZM1772.08 1972.36C1709.47 1972.36 1658.81 1921.7 1658.81 1859.08C1658.81 1796.47 1709.47 1745.81 1772.08 1745.81C1834.7 1745.81 1885.36 1796.47 1885.36 1859.08C1885.36 1921.53 1834.53 1972.36 1772.08 1972.36Z" fill="#FFCF2D"/>
<path d="M1772.08 1764.08C1719.76 1764.08 1677.24 1806.6 1677.24 1858.92C1677.24 1911.24 1719.76 1953.76 1772.08 1953.76C1824.4 1953.76 1866.92 1911.4 1866.92 1859.08C1866.92 1806.6 1824.4 1764.08 1772.08 1764.08ZM1772.08 1939.31C1727.74 1939.31 1691.69 1903.26 1691.69 1858.92C1691.69 1814.57 1727.74 1778.53 1772.08 1778.53C1816.43 1778.53 1852.47 1814.57 1852.47 1858.92C1852.47 1903.26 1816.43 1939.31 1772.08 1939.31Z" fill="#FFCF2D"/>
</g>
<path d="M20.8804 1408.7C20.8804 1409.98 20.0489 1410.93 18.9402 1410.93C17.8315 1410.93 17 1409.98 17 1408.7C17 1407.43 17.8315 1406.48 18.9402 1406.48C20.0489 1406.48 20.8804 1407.54 20.8804 1408.7Z" fill="#FFCF2D"/>
<path d="M37.4185 1408.7C37.4185 1409.98 36.587 1410.93 35.4783 1410.93C34.3696 1410.93 33.5381 1409.98 33.5381 1408.7C33.5381 1407.43 34.3696 1406.48 35.4783 1406.48C36.4946 1406.48 37.4185 1407.54 37.4185 1408.7Z" fill="#FFCF2D"/>
<path d="M53.8643 1408.7C53.8643 1409.98 53.0328 1410.93 51.9241 1410.93C50.8154 1410.93 49.9839 1409.98 49.9839 1408.7C49.9839 1407.43 50.8154 1406.48 51.9241 1406.48C53.0328 1406.48 53.8643 1407.54 53.8643 1408.7Z" fill="#FFCF2D"/>
<path d="M70.4024 1408.7C70.4024 1409.98 69.5709 1410.93 68.4622 1410.93C67.3535 1410.93 66.522 1409.98 66.522 1408.7C66.522 1407.43 67.3535 1406.48 68.4622 1406.48C69.5709 1406.48 70.4024 1407.54 70.4024 1408.7Z" fill="#FFCF2D"/>
<path d="M86.94 1408.7C86.94 1409.98 86.1085 1410.93 84.9998 1410.93C83.8911 1410.93 83.0596 1409.98 83.0596 1408.7C83.0596 1407.43 83.8911 1406.48 84.9998 1406.48C86.0161 1406.48 86.94 1407.54 86.94 1408.7Z" fill="#FFCF2D"/>
<path d="M103.478 1408.7C103.478 1409.98 102.647 1410.93 101.538 1410.93C100.429 1410.93 99.5977 1409.98 99.5977 1408.7C99.5977 1407.43 100.429 1406.48 101.538 1406.48C102.647 1406.48 103.478 1407.54 103.478 1408.7Z" fill="#FFCF2D"/>
<path d="M119.924 1408.7C119.924 1409.98 119.092 1410.93 117.984 1410.93C116.875 1410.93 116.043 1409.98 116.043 1408.7C116.043 1407.43 116.875 1406.48 117.984 1406.48C119.092 1406.48 119.924 1407.54 119.924 1408.7Z" fill="#FFCF2D"/>
<path d="M136.462 1408.7C136.462 1409.98 135.63 1410.93 134.522 1410.93C133.413 1410.93 132.582 1409.98 132.582 1408.7C132.582 1407.43 133.413 1406.48 134.522 1406.48C135.63 1406.48 136.462 1407.54 136.462 1408.7Z" fill="#FFCF2D"/>
<path d="M153 1408.7C153 1409.98 152.169 1410.93 151.06 1410.93C149.951 1410.93 149.12 1409.98 149.12 1408.7C149.12 1407.43 149.951 1406.48 151.06 1406.48C152.076 1406.48 153 1407.54 153 1408.7Z" fill="#FFCF2D"/>
<path d="M20.8804 1424.5C20.8804 1425.77 20.0489 1426.72 18.9402 1426.72C17.8315 1426.72 17 1425.77 17 1424.5C17 1423.23 17.8315 1422.27 18.9402 1422.27C20.0489 1422.27 20.8804 1423.23 20.8804 1424.5Z" fill="#FFCF2D"/>
<path d="M37.4185 1424.5C37.4185 1425.77 36.587 1426.72 35.4783 1426.72C34.3696 1426.72 33.5381 1425.77 33.5381 1424.5C33.5381 1423.23 34.3696 1422.27 35.4783 1422.27C36.4946 1422.27 37.4185 1423.23 37.4185 1424.5Z" fill="#FFCF2D"/>
<path d="M53.8643 1424.5C53.8643 1425.77 53.0328 1426.72 51.9241 1426.72C50.8154 1426.72 49.9839 1425.77 49.9839 1424.5C49.9839 1423.23 50.8154 1422.27 51.9241 1422.27C53.0328 1422.27 53.8643 1423.23 53.8643 1424.5Z" fill="#FFCF2D"/>
<path d="M70.4024 1424.5C70.4024 1425.77 69.5709 1426.72 68.4622 1426.72C67.3535 1426.72 66.522 1425.77 66.522 1424.5C66.522 1423.23 67.3535 1422.27 68.4622 1422.27C69.5709 1422.27 70.4024 1423.23 70.4024 1424.5Z" fill="#FFCF2D"/>
<path d="M86.94 1424.5C86.94 1425.77 86.1085 1426.72 84.9998 1426.72C83.8911 1426.72 83.0596 1425.77 83.0596 1424.5C83.0596 1423.23 83.8911 1422.27 84.9998 1422.27C86.0161 1422.27 86.94 1423.23 86.94 1424.5Z" fill="#FFCF2D"/>
<path d="M103.478 1424.5C103.478 1425.77 102.647 1426.72 101.538 1426.72C100.429 1426.72 99.5977 1425.77 99.5977 1424.5C99.5977 1423.23 100.429 1422.27 101.538 1422.27C102.647 1422.27 103.478 1423.23 103.478 1424.5Z" fill="#FFCF2D"/>
<path d="M119.924 1424.5C119.924 1425.77 119.092 1426.72 117.984 1426.72C116.875 1426.72 116.043 1425.77 116.043 1424.5C116.043 1423.23 116.875 1422.27 117.984 1422.27C119.092 1422.27 119.924 1423.23 119.924 1424.5Z" fill="#FFCF2D"/>
<path d="M136.462 1424.5C136.462 1425.77 135.63 1426.72 134.522 1426.72C133.413 1426.72 132.582 1425.77 132.582 1424.5C132.582 1423.23 133.413 1422.27 134.522 1422.27C135.63 1422.27 136.462 1423.23 136.462 1424.5Z" fill="#FFCF2D"/>
<path d="M153 1424.5C153 1425.77 152.169 1426.72 151.06 1426.72C149.951 1426.72 149.12 1425.77 149.12 1424.5C149.12 1423.23 149.951 1422.27 151.06 1422.27C152.076 1422.27 153 1423.23 153 1424.5Z" fill="#FFCF2D"/>
<path d="M20.8804 1377.23C20.8804 1378.5 20.0489 1379.45 18.9402 1379.45C17.8315 1379.45 17 1378.5 17 1377.23C17 1375.95 17.8315 1375 18.9402 1375C20.0489 1375 20.8804 1375.95 20.8804 1377.23Z" fill="#FFCF2D"/>
<path d="M37.4185 1377.23C37.4185 1378.5 36.587 1379.45 35.4783 1379.45C34.3696 1379.45 33.5381 1378.5 33.5381 1377.23C33.5381 1375.95 34.3696 1375 35.4783 1375C36.4946 1375 37.4185 1375.95 37.4185 1377.23Z" fill="#FFCF2D"/>
<path d="M53.8643 1377.23C53.8643 1378.5 53.0328 1379.45 51.9241 1379.45C50.8154 1379.45 49.9839 1378.5 49.9839 1377.23C49.9839 1375.95 50.9078 1375 51.9241 1375C53.0328 1375 53.8643 1375.95 53.8643 1377.23Z" fill="#FFCF2D"/>
<path d="M70.4024 1377.23C70.4024 1378.5 69.5709 1379.45 68.4622 1379.45C67.3535 1379.45 66.522 1378.5 66.522 1377.23C66.522 1375.95 67.4459 1375 68.4622 1375C69.4785 1375 70.4024 1375.95 70.4024 1377.23Z" fill="#FFCF2D"/>
<path d="M86.94 1377.23C86.94 1378.5 86.1085 1379.45 84.9998 1379.45C83.8911 1379.45 83.0596 1378.5 83.0596 1377.23C83.0596 1375.95 83.8911 1375 84.9998 1375C86.0161 1375 86.94 1375.95 86.94 1377.23Z" fill="#FFCF2D"/>
<path d="M103.478 1377.23C103.478 1378.5 102.647 1379.45 101.538 1379.45C100.429 1379.45 99.5977 1378.5 99.5977 1377.23C99.5977 1375.95 100.429 1375 101.538 1375C102.647 1375 103.478 1375.95 103.478 1377.23Z" fill="#FFCF2D"/>
<path d="M119.924 1377.23C119.924 1378.5 119.092 1379.45 117.984 1379.45C116.875 1379.45 116.043 1378.5 116.043 1377.23C116.043 1375.95 116.875 1375 117.984 1375C119.092 1375 119.924 1375.95 119.924 1377.23Z" fill="#FFCF2D"/>
<path d="M136.462 1377.23C136.462 1378.5 135.63 1379.45 134.522 1379.45C133.413 1379.45 132.582 1378.5 132.582 1377.23C132.582 1375.95 133.413 1375 134.522 1375C135.63 1375 136.462 1375.95 136.462 1377.23Z" fill="#FFCF2D"/>
<path d="M153 1377.23C153 1378.5 152.169 1379.45 151.06 1379.45C149.951 1379.45 149.12 1378.5 149.12 1377.23C149.12 1375.95 149.951 1375 151.06 1375C152.076 1375 153 1375.95 153 1377.23Z" fill="#FFCF2D"/>
<path d="M20.8804 1393.02C20.8804 1394.29 20.0489 1395.24 18.9402 1395.24C17.8315 1395.24 17 1394.18 17 1393.02C17 1391.75 17.8315 1390.79 18.9402 1390.79C20.0489 1390.79 20.8804 1391.75 20.8804 1393.02Z" fill="#FFCF2D"/>
<path d="M37.4185 1393.02C37.4185 1394.29 36.587 1395.24 35.4783 1395.24C34.3696 1395.24 33.5381 1394.29 33.5381 1393.02C33.5381 1391.75 34.3696 1390.79 35.4783 1390.79C36.4946 1390.79 37.4185 1391.75 37.4185 1393.02Z" fill="#FFCF2D"/>
<path d="M53.8643 1393.02C53.8643 1394.29 53.0328 1395.24 51.9241 1395.24C50.8154 1395.24 49.9839 1394.29 49.9839 1393.02C49.9839 1391.75 50.8154 1390.79 51.9241 1390.79C53.0328 1390.79 53.8643 1391.75 53.8643 1393.02Z" fill="#FFCF2D"/>
<path d="M70.4024 1393.02C70.4024 1394.29 69.5709 1395.24 68.4622 1395.24C67.3535 1395.24 66.522 1394.29 66.522 1393.02C66.522 1391.75 67.3535 1390.79 68.4622 1390.79C69.5709 1390.79 70.4024 1391.75 70.4024 1393.02Z" fill="#FFCF2D"/>
<path d="M86.94 1393.02C86.94 1394.29 86.1085 1395.24 84.9998 1395.24C83.8911 1395.24 83.0596 1394.29 83.0596 1393.02C83.0596 1391.75 83.8911 1390.79 84.9998 1390.79C86.0161 1390.79 86.94 1391.75 86.94 1393.02Z" fill="#FFCF2D"/>
<path d="M103.478 1393.02C103.478 1394.29 102.647 1395.24 101.538 1395.24C100.429 1395.24 99.5977 1394.29 99.5977 1393.02C99.5977 1391.75 100.429 1390.79 101.538 1390.79C102.647 1390.79 103.478 1391.75 103.478 1393.02Z" fill="#FFCF2D"/>
<path d="M119.924 1393.02C119.924 1394.29 119.092 1395.24 117.984 1395.24C116.875 1395.24 116.043 1394.29 116.043 1393.02C116.043 1391.75 116.875 1390.79 117.984 1390.79C119.092 1390.79 119.924 1391.75 119.924 1393.02Z" fill="#FFCF2D"/>
<path d="M136.462 1393.02C136.462 1394.29 135.63 1395.24 134.522 1395.24C133.413 1395.24 132.582 1394.29 132.582 1393.02C132.582 1391.75 133.413 1390.79 134.522 1390.79C135.63 1390.79 136.462 1391.75 136.462 1393.02Z" fill="#FFCF2D"/>
<path d="M153 1393.02C153 1394.29 152.169 1395.24 151.06 1395.24C149.951 1395.24 149.12 1394.29 149.12 1393.02C149.12 1391.75 149.951 1390.79 151.06 1390.79C152.076 1390.79 153 1391.75 153 1393.02Z" fill="#FFCF2D"/>
<path d="M20.8804 1440.18C20.8804 1441.46 20.0489 1442.41 18.9402 1442.41C17.8315 1442.41 17 1441.46 17 1440.18C17 1438.91 17.8315 1437.96 18.9402 1437.96C20.0489 1437.96 20.8804 1439.02 20.8804 1440.18Z" fill="#FFCF2D"/>
<path d="M37.4185 1440.18C37.4185 1441.46 36.587 1442.41 35.4783 1442.41C34.3696 1442.41 33.5381 1441.46 33.5381 1440.18C33.5381 1438.91 34.3696 1437.96 35.4783 1437.96C36.4946 1437.96 37.4185 1439.02 37.4185 1440.18Z" fill="#FFCF2D"/>
<path d="M53.8643 1440.18C53.8643 1441.46 53.0328 1442.41 51.9241 1442.41C50.8154 1442.41 49.9839 1441.46 49.9839 1440.18C49.9839 1438.91 50.8154 1437.96 51.9241 1437.96C53.0328 1437.96 53.8643 1439.02 53.8643 1440.18Z" fill="#FFCF2D"/>
<path d="M70.4024 1440.18C70.4024 1441.46 69.5709 1442.41 68.4622 1442.41C67.3535 1442.41 66.522 1441.46 66.522 1440.18C66.522 1438.91 67.3535 1437.96 68.4622 1437.96C69.5709 1437.96 70.4024 1439.02 70.4024 1440.18Z" fill="#FFCF2D"/>
<path d="M86.94 1440.18C86.94 1441.46 86.1085 1442.41 84.9998 1442.41C83.8911 1442.41 83.0596 1441.46 83.0596 1440.18C83.0596 1438.91 83.8911 1437.96 84.9998 1437.96C86.0161 1437.96 86.94 1439.02 86.94 1440.18Z" fill="#FFCF2D"/>
<path d="M103.478 1440.18C103.478 1441.46 102.647 1442.41 101.538 1442.41C100.429 1442.41 99.5977 1441.46 99.5977 1440.18C99.5977 1438.91 100.429 1437.96 101.538 1437.96C102.647 1437.96 103.478 1439.02 103.478 1440.18Z" fill="#FFCF2D"/>
<path d="M119.924 1440.18C119.924 1441.46 119.092 1442.41 117.984 1442.41C116.875 1442.41 116.043 1441.46 116.043 1440.18C116.043 1438.91 116.875 1437.96 117.984 1437.96C119.092 1437.96 119.924 1439.02 119.924 1440.18Z" fill="#FFCF2D"/>
<path d="M136.462 1440.18C136.462 1441.46 135.63 1442.41 134.522 1442.41C133.413 1442.41 132.582 1441.46 132.582 1440.18C132.582 1438.91 133.413 1437.96 134.522 1437.96C135.63 1437.96 136.462 1439.02 136.462 1440.18Z" fill="#FFCF2D"/>
<path d="M153 1440.18C153 1441.46 152.169 1442.41 151.06 1442.41C149.951 1442.41 149.12 1441.46 149.12 1440.18C149.12 1438.91 149.951 1437.96 151.06 1437.96C152.076 1437.96 153 1439.02 153 1440.18Z" fill="#FFCF2D"/>
<path d="M20.8804 1455.98C20.8804 1457.25 20.0489 1458.2 18.9402 1458.2C17.8315 1458.2 17 1457.25 17 1455.98C17 1454.71 17.8315 1453.75 18.9402 1453.75C20.0489 1453.75 20.8804 1454.71 20.8804 1455.98Z" fill="#FFCF2D"/>
<path d="M37.4185 1455.98C37.4185 1457.25 36.587 1458.2 35.4783 1458.2C34.3696 1458.2 33.5381 1457.25 33.5381 1455.98C33.5381 1454.71 34.3696 1453.75 35.4783 1453.75C36.4946 1453.75 37.4185 1454.71 37.4185 1455.98Z" fill="#FFCF2D"/>
<path d="M53.8643 1455.98C53.8643 1457.25 53.0328 1458.2 51.9241 1458.2C50.8154 1458.2 49.9839 1457.25 49.9839 1455.98C49.9839 1454.71 50.8154 1453.75 51.9241 1453.75C53.0328 1453.75 53.8643 1454.71 53.8643 1455.98Z" fill="#FFCF2D"/>
<path d="M68.4622 1458.2C69.5337 1458.2 70.4024 1457.21 70.4024 1455.98C70.4024 1454.75 69.5337 1453.75 68.4622 1453.75C67.3906 1453.75 66.522 1454.75 66.522 1455.98C66.522 1457.21 67.3906 1458.2 68.4622 1458.2Z" fill="#FFCF2D"/>
<path d="M86.94 1455.98C86.94 1457.25 86.1085 1458.2 84.9998 1458.2C83.8911 1458.2 83.0596 1457.25 83.0596 1455.98C83.0596 1454.71 83.8911 1453.75 84.9998 1453.75C86.0161 1453.75 86.94 1454.71 86.94 1455.98Z" fill="#FFCF2D"/>
<path d="M103.478 1455.98C103.478 1457.25 102.647 1458.2 101.538 1458.2C100.429 1458.2 99.5977 1457.25 99.5977 1455.98C99.5977 1454.71 100.429 1453.75 101.538 1453.75C102.647 1453.75 103.478 1454.71 103.478 1455.98Z" fill="#FFCF2D"/>
<path d="M119.924 1455.98C119.924 1457.25 119.092 1458.2 117.984 1458.2C116.875 1458.2 116.043 1457.25 116.043 1455.98C116.043 1454.71 116.875 1453.75 117.984 1453.75C119.092 1453.75 119.924 1454.71 119.924 1455.98Z" fill="#FFCF2D"/>
<path d="M134.522 1458.2C135.593 1458.2 136.462 1457.21 136.462 1455.98C136.462 1454.75 135.593 1453.75 134.522 1453.75C133.45 1453.75 132.582 1454.75 132.582 1455.98C132.582 1457.21 133.45 1458.2 134.522 1458.2Z" fill="#FFCF2D"/>
<path d="M153 1455.98C153 1457.25 152.169 1458.2 151.06 1458.2C149.951 1458.2 149.12 1457.25 149.12 1455.98C149.12 1454.71 149.951 1453.75 151.06 1453.75C152.076 1453.75 153 1454.71 153 1455.98Z" fill="#FFCF2D"/>
<path d="M20.8804 1471.77C20.8804 1473.04 20.0489 1473.99 18.9402 1473.99C17.8315 1473.99 17 1473.04 17 1471.77C17 1470.5 17.8315 1469.54 18.9402 1469.54C20.0489 1469.54 20.8804 1470.5 20.8804 1471.77Z" fill="#FFCF2D"/>
<path d="M37.4185 1471.77C37.4185 1473.04 36.587 1473.99 35.4783 1473.99C34.3696 1473.99 33.5381 1473.04 33.5381 1471.77C33.5381 1470.5 34.3696 1469.54 35.4783 1469.54C36.4946 1469.54 37.4185 1470.5 37.4185 1471.77Z" fill="#FFCF2D"/>
<path d="M53.8643 1471.77C53.8643 1473.04 53.0328 1473.99 51.9241 1473.99C50.8154 1473.99 49.9839 1473.04 49.9839 1471.77C49.9839 1470.5 50.8154 1469.54 51.9241 1469.54C53.0328 1469.54 53.8643 1470.5 53.8643 1471.77Z" fill="#FFCF2D"/>
<path d="M70.4024 1471.77C70.4024 1473.04 69.5709 1473.99 68.4622 1473.99C67.3535 1473.99 66.522 1473.04 66.522 1471.77C66.522 1470.5 67.3535 1469.54 68.4622 1469.54C69.5709 1469.54 70.4024 1470.5 70.4024 1471.77Z" fill="#FFCF2D"/>
<path d="M86.94 1471.77C86.94 1473.04 86.1085 1473.99 84.9998 1473.99C83.8911 1473.99 83.0596 1473.04 83.0596 1471.77C83.0596 1470.5 83.8911 1469.54 84.9998 1469.54C86.0161 1469.54 86.94 1470.5 86.94 1471.77Z" fill="#FFCF2D"/>
<path d="M103.478 1471.77C103.478 1473.04 102.647 1473.99 101.538 1473.99C100.429 1473.99 99.5977 1473.04 99.5977 1471.77C99.5977 1470.5 100.429 1469.54 101.538 1469.54C102.647 1469.54 103.478 1470.5 103.478 1471.77Z" fill="#FFCF2D"/>
<path d="M119.924 1471.77C119.924 1473.04 119.092 1473.99 117.984 1473.99C116.875 1473.99 116.043 1473.04 116.043 1471.77C116.043 1470.5 116.875 1469.54 117.984 1469.54C119.092 1469.54 119.924 1470.5 119.924 1471.77Z" fill="#FFCF2D"/>
<path d="M136.462 1471.77C136.462 1473.04 135.63 1473.99 134.522 1473.99C133.413 1473.99 132.582 1473.04 132.582 1471.77C132.582 1470.5 133.413 1469.54 134.522 1469.54C135.63 1469.54 136.462 1470.5 136.462 1471.77Z" fill="#FFCF2D"/>
<path d="M153 1471.77C153 1473.04 152.169 1473.99 151.06 1473.99C149.951 1473.99 149.12 1473.04 149.12 1471.77C149.12 1470.5 149.951 1469.54 151.06 1469.54C152.076 1469.54 153 1470.5 153 1471.77Z" fill="#FFCF2D"/>
<path d="M20.8804 1487.46C20.8804 1488.73 20.0489 1489.68 18.9402 1489.68C17.8315 1489.68 17 1488.73 17 1487.46C17 1486.18 17.8315 1485.23 18.9402 1485.23C20.0489 1485.23 20.8804 1486.29 20.8804 1487.46Z" fill="#FFCF2D"/>
<path d="M37.4185 1487.46C37.4185 1488.73 36.587 1489.68 35.4783 1489.68C34.3696 1489.68 33.5381 1488.73 33.5381 1487.46C33.5381 1486.18 34.3696 1485.23 35.4783 1485.23C36.4946 1485.23 37.4185 1486.29 37.4185 1487.46Z" fill="#FFCF2D"/>
<path d="M53.8643 1487.46C53.8643 1488.73 53.0328 1489.68 51.9241 1489.68C50.8154 1489.68 49.9839 1488.73 49.9839 1487.46C49.9839 1486.18 50.8154 1485.23 51.9241 1485.23C53.0328 1485.23 53.8643 1486.29 53.8643 1487.46Z" fill="#FFCF2D"/>
<path d="M70.4024 1487.46C70.4024 1488.73 69.5709 1489.68 68.4622 1489.68C67.3535 1489.68 66.522 1488.73 66.522 1487.46C66.522 1486.18 67.3535 1485.23 68.4622 1485.23C69.5709 1485.23 70.4024 1486.29 70.4024 1487.46Z" fill="#FFCF2D"/>
<path d="M86.94 1487.46C86.94 1488.73 86.1085 1489.68 84.9998 1489.68C83.8911 1489.68 83.0596 1488.73 83.0596 1487.46C83.0596 1486.18 83.8911 1485.23 84.9998 1485.23C86.0161 1485.23 86.94 1486.29 86.94 1487.46Z" fill="#FFCF2D"/>
<path d="M103.478 1487.46C103.478 1488.73 102.647 1489.68 101.538 1489.68C100.429 1489.68 99.5977 1488.73 99.5977 1487.46C99.5977 1486.18 100.429 1485.23 101.538 1485.23C102.647 1485.23 103.478 1486.29 103.478 1487.46Z" fill="#FFCF2D"/>
<path d="M119.924 1487.46C119.924 1488.73 119.092 1489.68 117.984 1489.68C116.875 1489.68 116.043 1488.73 116.043 1487.46C116.043 1486.18 116.875 1485.23 117.984 1485.23C119.092 1485.23 119.924 1486.29 119.924 1487.46Z" fill="#FFCF2D"/>
<path d="M136.462 1487.46C136.462 1488.73 135.63 1489.68 134.522 1489.68C133.413 1489.68 132.582 1488.73 132.582 1487.46C132.582 1486.18 133.413 1485.23 134.522 1485.23C135.63 1485.23 136.462 1486.29 136.462 1487.46Z" fill="#FFCF2D"/>
<path d="M153 1487.46C153 1488.73 152.169 1489.68 151.06 1489.68C149.951 1489.68 149.12 1488.73 149.12 1487.46C149.12 1486.18 149.951 1485.23 151.06 1485.23C152.076 1485.23 153 1486.29 153 1487.46Z" fill="#FFCF2D"/>
<g opacity="0.2">
<path d="M1633.02 47.9009C1642.31 42.5413 1645.51 30.6189 1640.15 21.3427C1634.79 12.0665 1622.87 8.87593 1613.59 14.2355L1633.02 47.9009Z" fill="#FFCF2D"/>
<path d="M1606.74 63.0737C1616.03 57.7142 1619.23 45.7918 1613.87 36.5155C1608.52 27.2393 1596.59 24.0488 1587.31 29.4083L1606.74 63.0737Z" fill="#FFCF2D"/>
<path d="M1580.46 78.2456C1589.75 72.886 1592.95 60.9636 1587.59 51.6874C1582.24 42.4112 1570.31 39.2207 1561.03 44.5802L1580.46 78.2456Z" fill="#FFCF2D"/>
</g>
<defs>
<clipPath id="clip0_2554_456">
<rect width="242" height="242" fill="white" transform="translate(1651 1738)"/>
</clipPath>
</defs>
</svg>
