<svg width="1871" height="1068" viewBox="0 0 1871 1068" fill="none" xmlns="http://www.w3.org/2000/svg">
<g clip-path="url(#clip0_2234_8802)">
<g opacity="0.2" clip-path="url(#clip1_2234_8802)">
<path d="M30.0975 884C-48.4557 884 -112 947.544 -112 1026.1C-112 1104.46 -48.4557 1168.19 30.0975 1168.19C108.456 1168.19 172.195 1104.65 172.195 1026.1C172 947.544 108.456 884 30.0975 884ZM30.0975 1159.03C-43.3878 1159.03 -102.839 1099.58 -102.839 1026.1C-102.839 952.612 -43.3878 893.161 30.0975 893.161C103.583 893.161 163.034 952.612 163.034 1026.1C163.034 1099.39 103.388 1159.03 30.0975 1159.03Z" fill="white"/>
<path d="M30.0988 914.603C-31.3014 914.603 -81.2012 964.502 -81.2012 1025.9C-81.2012 1087.3 -31.3014 1137.2 30.0988 1137.2C91.4989 1137.2 141.399 1087.5 141.399 1026.1C141.399 964.502 91.4989 914.603 30.0988 914.603ZM30.0988 1120.24C-21.9452 1120.24 -64.243 1077.95 -64.243 1025.9C-64.243 973.859 -21.9452 931.561 30.0988 931.561C82.1427 931.561 124.441 973.859 124.441 1025.9C124.441 1077.95 82.1427 1120.24 30.0988 1120.24Z" fill="white"/>
<path d="M30.098 963.527C-4.40304 963.527 -32.4717 991.596 -32.4717 1026.1C-32.4717 1060.6 -4.59796 1088.67 30.098 1088.67C64.599 1088.67 92.6677 1060.6 92.6677 1026.1C92.4727 991.596 64.599 963.527 30.098 963.527ZM30.098 1059.62C11.5805 1059.62 -3.42843 1044.61 -3.42843 1026.1C-3.42843 1007.58 11.5805 992.571 30.098 992.571C48.6155 992.571 63.6244 1007.58 63.6244 1026.1C63.6244 1044.61 48.6155 1059.62 30.098 1059.62Z" fill="white"/>
</g>
<g opacity="0.8" clip-path="url(#clip2_2234_8802)">
<path d="M1768.34 777.264C1768.34 778.784 1767.19 779.923 1765.67 779.923C1764.14 779.923 1763 778.784 1763 777.264C1763 775.745 1764.14 774.605 1765.67 774.605C1767.19 774.605 1768.34 775.872 1768.34 777.264Z" fill="white"/>
<path d="M1791.08 777.264C1791.08 778.784 1789.93 779.923 1788.41 779.923C1786.88 779.923 1785.74 778.784 1785.74 777.264C1785.74 775.745 1786.88 774.605 1788.41 774.605C1789.8 774.605 1791.08 775.872 1791.08 777.264Z" fill="white"/>
<path d="M1813.69 777.264C1813.69 778.784 1812.54 779.923 1811.02 779.923C1809.5 779.923 1808.35 778.784 1808.35 777.264C1808.35 775.745 1809.5 774.605 1811.02 774.605C1812.54 774.605 1813.69 775.872 1813.69 777.264Z" fill="white"/>
<path d="M1836.43 777.264C1836.43 778.784 1835.28 779.923 1833.76 779.923C1832.24 779.923 1831.09 778.784 1831.09 777.264C1831.09 775.745 1832.24 774.605 1833.76 774.605C1835.28 774.605 1836.43 775.872 1836.43 777.264Z" fill="white"/>
<path d="M1859.17 777.264C1859.17 778.784 1858.02 779.923 1856.5 779.923C1854.98 779.923 1853.83 778.784 1853.83 777.264C1853.83 775.745 1854.98 774.605 1856.5 774.605C1857.9 774.605 1859.17 775.872 1859.17 777.264Z" fill="white"/>
<path d="M1768.34 796.131C1768.34 797.65 1767.19 798.79 1765.67 798.79C1764.14 798.79 1763 797.65 1763 796.131C1763 794.611 1764.14 793.472 1765.67 793.472C1767.19 793.472 1768.34 794.611 1768.34 796.131Z" fill="white"/>
<path d="M1791.08 796.131C1791.08 797.65 1789.93 798.79 1788.41 798.79C1786.88 798.79 1785.74 797.65 1785.74 796.131C1785.74 794.611 1786.88 793.472 1788.41 793.472C1789.8 793.472 1791.08 794.611 1791.08 796.131Z" fill="white"/>
<path d="M1813.69 796.131C1813.69 797.65 1812.54 798.79 1811.02 798.79C1809.5 798.79 1808.35 797.65 1808.35 796.131C1808.35 794.611 1809.5 793.472 1811.02 793.472C1812.54 793.472 1813.69 794.611 1813.69 796.131Z" fill="white"/>
<path d="M1836.43 796.131C1836.43 797.65 1835.28 798.79 1833.76 798.79C1832.24 798.79 1831.09 797.65 1831.09 796.131C1831.09 794.611 1832.24 793.472 1833.76 793.472C1835.28 793.472 1836.43 794.611 1836.43 796.131Z" fill="white"/>
<path d="M1859.17 796.131C1859.17 797.65 1858.02 798.79 1856.5 798.79C1854.98 798.79 1853.83 797.65 1853.83 796.131C1853.83 794.611 1854.98 793.472 1856.5 793.472C1857.9 793.472 1859.17 794.611 1859.17 796.131Z" fill="white"/>
<path d="M1768.34 739.659C1768.34 741.178 1767.19 742.318 1765.67 742.318C1764.14 742.318 1763 741.178 1763 739.659C1763 738.14 1764.14 737 1765.67 737C1767.19 737 1768.34 738.14 1768.34 739.659Z" fill="white"/>
<path d="M1791.08 739.659C1791.08 741.178 1789.93 742.318 1788.41 742.318C1786.88 742.318 1785.74 741.178 1785.74 739.659C1785.74 738.14 1786.88 737 1788.41 737C1789.8 737 1791.08 738.14 1791.08 739.659Z" fill="white"/>
<path d="M1813.69 739.659C1813.69 741.178 1812.54 742.318 1811.02 742.318C1809.5 742.318 1808.35 741.178 1808.35 739.659C1808.35 738.14 1809.62 737 1811.02 737C1812.54 737 1813.69 738.14 1813.69 739.659Z" fill="white"/>
<path d="M1836.43 739.659C1836.43 741.178 1835.28 742.318 1833.76 742.318C1832.24 742.318 1831.09 741.178 1831.09 739.659C1831.09 738.14 1832.36 737 1833.76 737C1835.16 737 1836.43 738.14 1836.43 739.659Z" fill="white"/>
<path d="M1859.17 739.659C1859.17 741.178 1858.02 742.318 1856.5 742.318C1854.98 742.318 1853.83 741.178 1853.83 739.659C1853.83 738.14 1854.98 737 1856.5 737C1857.9 737 1859.17 738.14 1859.17 739.659Z" fill="white"/>
<path d="M1768.34 758.525C1768.34 760.045 1767.19 761.184 1765.67 761.184C1764.14 761.184 1763 759.918 1763 758.525C1763 757.006 1764.14 755.866 1765.67 755.866C1767.19 755.866 1768.34 757.006 1768.34 758.525Z" fill="white"/>
<path d="M1791.08 758.525C1791.08 760.045 1789.93 761.184 1788.41 761.184C1786.88 761.184 1785.74 760.045 1785.74 758.525C1785.74 757.006 1786.88 755.866 1788.41 755.866C1789.8 755.866 1791.08 757.006 1791.08 758.525Z" fill="white"/>
<path d="M1813.69 758.525C1813.69 760.045 1812.54 761.184 1811.02 761.184C1809.5 761.184 1808.35 760.045 1808.35 758.525C1808.35 757.006 1809.5 755.866 1811.02 755.866C1812.54 755.866 1813.69 757.006 1813.69 758.525Z" fill="white"/>
<path d="M1836.43 758.525C1836.43 760.045 1835.28 761.184 1833.76 761.184C1832.24 761.184 1831.09 760.045 1831.09 758.525C1831.09 757.006 1832.24 755.866 1833.76 755.866C1835.28 755.866 1836.43 757.006 1836.43 758.525Z" fill="white"/>
<path d="M1859.17 758.525C1859.17 760.045 1858.02 761.184 1856.5 761.184C1854.98 761.184 1853.83 760.045 1853.83 758.525C1853.83 757.006 1854.98 755.866 1856.5 755.866C1857.9 755.866 1859.17 757.006 1859.17 758.525Z" fill="white"/>
<path d="M1768.34 814.87C1768.34 816.389 1767.19 817.529 1765.67 817.529C1764.14 817.529 1763 816.389 1763 814.87C1763 813.35 1764.14 812.211 1765.67 812.211C1767.19 812.211 1768.34 813.477 1768.34 814.87Z" fill="white"/>
<path d="M1791.08 814.87C1791.08 816.389 1789.93 817.529 1788.41 817.529C1786.88 817.529 1785.74 816.389 1785.74 814.87C1785.74 813.35 1786.88 812.211 1788.41 812.211C1789.8 812.211 1791.08 813.477 1791.08 814.87Z" fill="white"/>
<path d="M1813.69 814.87C1813.69 816.389 1812.54 817.529 1811.02 817.529C1809.5 817.529 1808.35 816.389 1808.35 814.87C1808.35 813.35 1809.5 812.211 1811.02 812.211C1812.54 812.211 1813.69 813.477 1813.69 814.87Z" fill="white"/>
<path d="M1836.43 814.87C1836.43 816.389 1835.28 817.529 1833.76 817.529C1832.24 817.529 1831.09 816.389 1831.09 814.87C1831.09 813.35 1832.24 812.211 1833.76 812.211C1835.28 812.211 1836.43 813.477 1836.43 814.87Z" fill="white"/>
<path d="M1859.17 814.87C1859.17 816.389 1858.02 817.529 1856.5 817.529C1854.98 817.529 1853.83 816.389 1853.83 814.87C1853.83 813.35 1854.98 812.211 1856.5 812.211C1857.9 812.211 1859.17 813.477 1859.17 814.87Z" fill="white"/>
<path d="M1768.34 833.736C1768.34 835.256 1767.19 836.395 1765.67 836.395C1764.14 836.395 1763 835.256 1763 833.736C1763 832.217 1764.14 831.077 1765.67 831.077C1767.19 831.077 1768.34 832.217 1768.34 833.736Z" fill="white"/>
<path d="M1791.08 833.736C1791.08 835.256 1789.93 836.395 1788.41 836.395C1786.88 836.395 1785.74 835.256 1785.74 833.736C1785.74 832.217 1786.88 831.077 1788.41 831.077C1789.8 831.077 1791.08 832.217 1791.08 833.736Z" fill="white"/>
<path d="M1813.69 833.736C1813.69 835.256 1812.54 836.395 1811.02 836.395C1809.5 836.395 1808.35 835.256 1808.35 833.736C1808.35 832.217 1809.5 831.077 1811.02 831.077C1812.54 831.077 1813.69 832.217 1813.69 833.736Z" fill="white"/>
<path d="M1833.76 836.395C1835.23 836.395 1836.43 835.205 1836.43 833.736C1836.43 832.268 1835.23 831.077 1833.76 831.077C1832.29 831.077 1831.09 832.268 1831.09 833.736C1831.09 835.205 1832.29 836.395 1833.76 836.395Z" fill="white"/>
<path d="M1859.17 833.736C1859.17 835.256 1858.02 836.395 1856.5 836.395C1854.98 836.395 1853.83 835.256 1853.83 833.736C1853.83 832.217 1854.98 831.077 1856.5 831.077C1857.9 831.077 1859.17 832.217 1859.17 833.736Z" fill="white"/>
<path d="M1768.34 852.601C1768.34 854.121 1767.19 855.26 1765.67 855.26C1764.14 855.26 1763 854.121 1763 852.601C1763 851.082 1764.14 849.942 1765.67 849.942C1767.19 849.942 1768.34 851.082 1768.34 852.601Z" fill="white"/>
<path d="M1791.08 852.601C1791.08 854.121 1789.93 855.26 1788.41 855.26C1786.88 855.26 1785.74 854.121 1785.74 852.601C1785.74 851.082 1786.88 849.942 1788.41 849.942C1789.8 849.942 1791.08 851.082 1791.08 852.601Z" fill="white"/>
<path d="M1813.69 852.601C1813.69 854.121 1812.54 855.26 1811.02 855.26C1809.5 855.26 1808.35 854.121 1808.35 852.601C1808.35 851.082 1809.5 849.942 1811.02 849.942C1812.54 849.942 1813.69 851.082 1813.69 852.601Z" fill="white"/>
<path d="M1836.43 852.601C1836.43 854.121 1835.28 855.26 1833.76 855.26C1832.24 855.26 1831.09 854.121 1831.09 852.601C1831.09 851.082 1832.24 849.942 1833.76 849.942C1835.28 849.942 1836.43 851.082 1836.43 852.601Z" fill="white"/>
<path d="M1859.17 852.601C1859.17 854.121 1858.02 855.26 1856.5 855.26C1854.98 855.26 1853.83 854.121 1853.83 852.601C1853.83 851.082 1854.98 849.942 1856.5 849.942C1857.9 849.942 1859.17 851.082 1859.17 852.601Z" fill="white"/>
<path d="M1768.34 871.341C1768.34 872.86 1767.19 874 1765.67 874C1764.14 874 1763 872.86 1763 871.341C1763 869.821 1764.14 868.682 1765.67 868.682C1767.19 868.682 1768.34 869.948 1768.34 871.341Z" fill="white"/>
<path d="M1791.08 871.341C1791.08 872.86 1789.93 874 1788.41 874C1786.88 874 1785.74 872.86 1785.74 871.341C1785.74 869.821 1786.88 868.682 1788.41 868.682C1789.8 868.682 1791.08 869.948 1791.08 871.341Z" fill="white"/>
<path d="M1813.69 871.341C1813.69 872.86 1812.54 874 1811.02 874C1809.5 874 1808.35 872.86 1808.35 871.341C1808.35 869.821 1809.5 868.682 1811.02 868.682C1812.54 868.682 1813.69 869.948 1813.69 871.341Z" fill="white"/>
<path d="M1836.43 871.341C1836.43 872.86 1835.28 874 1833.76 874C1832.24 874 1831.09 872.86 1831.09 871.341C1831.09 869.821 1832.24 868.682 1833.76 868.682C1835.28 868.682 1836.43 869.948 1836.43 871.341Z" fill="white"/>
<path d="M1859.17 871.341C1859.17 872.86 1858.02 874 1856.5 874C1854.98 874 1853.83 872.86 1853.83 871.341C1853.83 869.821 1854.98 868.682 1856.5 868.682C1857.9 868.682 1859.17 869.948 1859.17 871.341Z" fill="white"/>
</g>
<g opacity="0.3">
<path d="M1761.81 63.2212L1771.47 72.8799L1745.78 98.5633L1720.1 72.8799L1729.68 63.2943L1745.71 79.319L1761.81 63.2212Z" fill="white"/>
<path d="M1761.81 28.5386L1771.39 38.1241L1745.71 63.8075L1720.1 38.1973L1729.76 28.5386L1745.78 44.5632L1761.81 28.5386Z" fill="white"/>
<path d="M1761.73 -6.21835L1771.39 3.44036L1745.78 29.0506L1720.1 3.36719L1729.68 -6.21835L1745.71 9.80633L1761.73 -6.21835Z" fill="white"/>
</g>
<path opacity="0.3" d="M794 796.553C780.071 810.482 757.377 810.482 743.447 796.553C729.518 782.623 729.518 759.929 743.447 746L794 796.553Z" fill="white"/>
<g opacity="0.3">
<path d="M848.486 517.89C859.205 517.89 867.937 509.165 867.937 498.453C867.937 487.742 859.205 479.017 848.486 479.017L848.486 517.89Z" fill="white"/>
<path d="M818.141 517.89C828.861 517.89 837.592 509.165 837.592 498.453C837.592 487.742 828.861 479.017 818.141 479.017L818.141 517.89Z" fill="white"/>
<path d="M787.796 517.89C798.515 517.89 807.247 509.165 807.247 498.453C807.247 487.742 798.515 479.017 787.796 479.017V517.89Z" fill="white"/>
</g>
<g opacity="0.3">
<path d="M146.301 132.921L146.301 121L178 121L178 152.699L166.169 152.699L166.169 132.921L146.301 132.921Z" fill="white"/>
<path d="M124.898 154.325L124.898 142.494L156.597 142.494L156.597 174.103L144.676 174.103L144.676 154.325L124.898 154.325Z" fill="white"/>
<path d="M103.495 175.819L103.495 163.898L135.103 163.898L135.103 195.597L123.272 195.597L123.272 175.819L103.495 175.819Z" fill="white"/>
<path d="M82.0005 197.222L82.0004 185.301L113.699 185.301L113.699 217L101.778 217L101.778 197.222L82.0005 197.222Z" fill="white"/>
</g>
</g>
<defs>
<clipPath id="clip0_2234_8802">
<rect width="1920" height="1080" fill="white" transform="translate(0 -12)"/>
</clipPath>
<clipPath id="clip1_2234_8802">
<rect width="284" height="284" fill="white" transform="translate(-112 884)"/>
</clipPath>
<clipPath id="clip2_2234_8802">
<rect width="187" height="137" fill="white" transform="translate(1763 737)"/>
</clipPath>
</defs>
</svg>
