<svg width="16" height="14" viewBox="0 0 16 14" fill="none" xmlns="http://www.w3.org/2000/svg">
<g filter="url(#filter0_d_2505_371)">
<path fill-rule="evenodd" clip-rule="evenodd" d="M15.1668 9.99935V2.66602C15.1668 1.56145 14.2714 0.666016 13.1668 0.666016L2.83349 0.666026C1.72893 0.666027 0.833496 1.56146 0.833496 2.66603V9.99934C0.833496 11.1039 1.72893 11.9993 2.8335 11.9993L13.1668 11.9993C14.2714 11.9993 15.1668 11.1039 15.1668 9.99935ZM13.8335 4.17232V9.99935C13.8335 10.3675 13.535 10.666 13.1668 10.666L2.8335 10.666C2.46531 10.666 2.16683 10.3675 2.16683 9.99934L2.16683 4.17223L6.87561 7.3742C7.55433 7.83573 8.44613 7.83573 9.12485 7.3742L13.8335 4.17232ZM13.8259 2.56509C13.7773 2.24479 13.5007 1.99935 13.1668 1.99935L2.83349 1.99936C2.49965 1.99936 2.22311 2.24476 2.17443 2.56501L7.62535 6.27164C7.8516 6.42548 8.14886 6.42548 8.3751 6.27164L13.8259 2.56509Z" fill="white"/>
</g>
<defs>
<filter id="filter0_d_2505_371" x="-3.1665" y="0.666016" width="22.3335" height="19.334" filterUnits="userSpaceOnUse" color-interpolation-filters="sRGB">
<feFlood flood-opacity="0" result="BackgroundImageFix"/>
<feColorMatrix in="SourceAlpha" type="matrix" values="0 0 0 0 0 0 0 0 0 0 0 0 0 0 0 0 0 0 127 0" result="hardAlpha"/>
<feOffset dy="4"/>
<feGaussianBlur stdDeviation="2"/>
<feComposite in2="hardAlpha" operator="out"/>
<feColorMatrix type="matrix" values="0 0 0 0 0 0 0 0 0 0 0 0 0 0 0 0 0 0 0.25 0"/>
<feBlend mode="normal" in2="BackgroundImageFix" result="effect1_dropShadow_2505_371"/>
<feBlend mode="normal" in="SourceGraphic" in2="effect1_dropShadow_2505_371" result="shape"/>
</filter>
</defs>
</svg>
